# xmcd CD database file
#
# Track frame offsets:
#	150
#	12840
#	28553
#	44776
#	61486
#	78121
#	97111
#	114744
#	130734
#	144842
#	163052
#	177287
#	194920
#	211045
#	228003
#	246236
#	262841
#	281321
#	297499
#	325954
#
# Disc length: 4672 seconds
#
# Revision: 1
# Processed by: cddbd v1.5.2PL0 Copyright (c) Steve Scherf et al.
# Submitted via: CDex 1.91
#
DISCID=1f123e14
DTITLE=Various Artist - TSP Country and Americana Vol 170
DYEAR=2017
DGENRE=Country
TTITLE0=David MacLachlan/Fountain Of Love
TTITLE1=Caleb Dinger/Loving Jesus Loving Others
TTITLE2=Ella Walker/Night Of A Lifetime
TTITLE3=J D Strait/Johnsonville Junction
TTITLE4=Mario Biferali/I Should Have Known
TTITLE5=Dan Stevens/Another Sad Country Tale
TTITLE6=Vanessa Delaine/Rainy Day
TTITLE7=Allan Markin/Gonna Love 'Em To Death (If It Kills Me)
TTITLE8=Richard Reed (vocals by Ryan Lucas)/Love Me Savanah
TTITLE9=Darrell and Nemra Rhoden/Mend  My Heart Again
TTITLE10=Razz Taylor and The Mystic River Band/When I Get To Heaven
TTITLE11=Allan Markin/Too Late Now
TTITLE12=Ronnie Dye/Dance Of A Lifetime
TTITLE13=Dan Stevens/Crush Hour Traffic
TTITLE14=Darrell and Nemra Rhoden/Our Baby Boy
TTITLE15=Lamar Smyly/Jehovah's Day
TTITLE16=Mike Wells/Destiny (Lessons Learned From The King)
TTITLE17=Richard Reed (vocals by Ryan Lucas)/And So I Will Pray To Heaven
TTITLE18=The Greatest Gift/Come Lord Jesus
TTITLE19=T J Doyle/Anonymous
EXTD=YEAR: 2017
EXTT0=
EXTT1=
EXTT2=
EXTT3=
EXTT4=
EXTT5=
EXTT6=
EXTT7=
EXTT8=
EXTT9=
EXTT10=
EXTT11=
EXTT12=
EXTT13=
EXTT14=
EXTT15=
EXTT16=
EXTT17=
EXTT18=
EXTT19=
PLAYORDER=
